<svg xmlns="http://www.w3.org/2000/svg" xmlns:xlink="http://www.w3.org/1999/xlink" xmlns:lucid="lucid" width="620" height="320"><g transform="translate(-300 -140)" lucid:page-tab-id="Vlptlc5kkVNu"><path d="M440 190c0 16.57-13.43 30-30 30s-30-13.43-30-30 13.43-30 30-30 30 13.43 30 30z" stroke="#000" stroke-width="2" fill="#fff"/><use xlink:href="#a" transform="matrix(1,0,0,1,385,165) translate(19 28.6)"/><path d="M380 290c0 16.57-13.43 30-30 30s-30-13.43-30-30 13.43-30 30-30 30 13.43 30 30z" stroke="#000" stroke-width="2" fill="#fff"/><use xlink:href="#b" transform="matrix(1,0,0,1,325,265) translate(19 28.6)"/><path d="M500 290c0 16.57-13.43 30-30 30s-30-13.43-30-30 13.43-30 30-30 30 13.43 30 30z" stroke="#000" stroke-width="2" fill="#fff"/><use xlink:href="#c" transform="matrix(1,0,0,1,445,265) translate(18.525 28.6)"/><path d="M440 410c0 16.57-13.43 30-30 30s-30-13.43-30-30 13.43-30 30-30 30 13.43 30 30z" stroke="#000" stroke-width="2" fill="#fff"/><use xlink:href="#d" transform="matrix(1,0,0,1,385,385) translate(18.525 28.6)"/><path d="M700 210c0 16.57-13.43 30-30 30s-30-13.43-30-30 13.43-30 30-30 30 13.43 30 30z" stroke="#000" stroke-width="2" fill="#fff"/><use xlink:href="#a" transform="matrix(1,0,0,1,645,185) translate(19 28.6)"/><path d="M840 210c0 16.57-13.43 30-30 30s-30-13.43-30-30 13.43-30 30-30 30 13.43 30 30z" stroke="#000" stroke-width="2" fill="#fff"/><use xlink:href="#b" transform="matrix(1,0,0,1,785,185) translate(19 28.6)"/><path d="M620 330c0 16.57-13.43 30-30 30s-30-13.43-30-30 13.43-30 30-30 30 13.43 30 30z" stroke="#000" stroke-width="2" fill="#fff"/><use xlink:href="#c" transform="matrix(1,0,0,1,565,305) translate(18.525 28.6)"/><path d="M760 330c0 16.57-13.43 30-30 30s-30-13.43-30-30 13.43-30 30-30 30 13.43 30 30z" stroke="#000" stroke-width="2" fill="#fff"/><use xlink:href="#d" transform="matrix(1,0,0,1,705,305) translate(18.525 28.6)"/><path d="M900 330c0 16.57-13.43 30-30 30s-30-13.43-30-30 13.43-30 30-30 30 13.43 30 30z" stroke="#000" stroke-width="2" fill="#fff"/><use xlink:href="#e" transform="matrix(1,0,0,1,845,305) translate(19 28.6)"/><path d="M392.23 215.3L350 260" stroke="#000" stroke-width="2" fill="none"/><path d="M393.77 215.1l-.82.88-1.45-1.37.58-.6zM363.17 252.8L350 260l6.43-13.55z"/><path d="M364.85 253.03l-13.04 7.12-1.8-.15-1.13.04 7.24-15.27zm-12.63 4.62l9.26-5.06-4.74-4.48z"/><path d="M431.4 212.34L470 260" stroke="#000" stroke-width="2" fill="none"/><path d="M432.2 211.7l-1.57 1.27-.56-.7.1-.06 1.3-1.38zM470 260l-12.58-8.17 7.2-5.83z"/><path d="M471.1 260.1l-1.1-.1-1.74.06-12.54-8.14 9.34-7.57zm-11.98-8.36l8.84 5.75-3.78-9.86z"/><path d="M350 320l43.68 63.68" stroke="#000" stroke-width="2" fill="none"/><path d="M350 320l-.82.57-.47-.68zM393.68 383.68l-11.9-9.15 7.65-5.24z"/><path d="M394.87 384.18l-1.06.56-.2.15-13.52-10.4 9.92-6.8zm-11.38-9.6l8.35 6.43-3-10.1z"/><path d="M470 320l-43.72 63.72" stroke="#000" stroke-width="2" fill="none"/><path d="M470.82 320.57L470 320l1.24-.04zM438.17 374.58l-11.9 9.14 4.26-14.38z"/><path d="M439.87 374.54l-13.55 10.4-1.2-.8 4.84-16.4zm-11.76 6.5l8.37-6.4-5.37-3.7z"/><path d="M647.1 230.9L590 300" stroke="#000" stroke-width="2" fill="none"/><path d="M647.8 230.17l.68.64-.6.74-1.54-1.27.8-.96zM602.66 291.96L590 300l5.52-13.95z"/><path d="M604.36 292.06l-12.7 8.08L590 300l-1.1.04 6.2-15.64zm-12.3 5.45l8.9-5.65-5.02-4.15z"/><path d="M690.52 233.2L730 300" stroke="#000" stroke-width="2" fill="none"/><path d="M691.38 232.7l-1.72 1-.45-.75.97-.74.57-.6zM730 300l-11.25-9.92 7.98-4.72z"/><path d="M731.04 300.1L730 300l-1.45.05-11.5-10.13 10.36-6.12zm-10.6-9.86l7.9 6.97-2.28-10.28z"/><path d="M788.82 232.5L730 300" stroke="#000" stroke-width="2" fill="none"/><path d="M790.2 232.42l-.63.73-1.5-1.32.67-.78zM742.87 292.3L730 300l5.88-13.8z"/><path d="M744.56 292.44l-12.85 7.7-1.7-.14-1.1.04 6.6-15.5zm-12.43 5.12l9.04-5.42-4.9-4.28z"/><path d="M830.52 233.2L870 300" stroke="#000" stroke-width="2" fill="none"/><path d="M831.38 232.7l-1.72 1-.45-.75.97-.74.57-.6zM870 300l-11.25-9.92 7.98-4.72z"/><path d="M871.04 300.1L870 300l-1.45.05-11.5-10.13 10.36-6.12zm-10.6-9.86l7.9 6.97-2.28-10.28z"/><defs><path d="M205 0l-28-72H64L36 0H1l101-248h38L239 0h-34zm-38-99l-47-123c-12 45-31 82-46 123h93" id="f"/><use transform="matrix(0.05,0,0,0.05,0,0)" xlink:href="#f" id="a"/><path d="M160-131c35 5 61 23 61 61C221 17 115-2 30 0v-248c76 3 177-17 177 60 0 33-19 50-47 57zm-97-11c50-1 110 9 110-42 0-47-63-36-110-37v79zm0 115c55-2 124 14 124-45 0-56-70-42-124-44v89" id="g"/><use transform="matrix(0.05,0,0,0.05,0,0)" xlink:href="#g" id="b"/><path d="M212-179c-10-28-35-45-73-45-59 0-87 40-87 99 0 60 29 101 89 101 43 0 62-24 78-52l27 14C228-24 195 4 139 4 59 4 22-46 18-125c-6-104 99-153 187-111 19 9 31 26 39 46" id="h"/><use transform="matrix(0.05,0,0,0.05,0,0)" xlink:href="#h" id="c"/><path d="M30-248c118-7 216 8 213 122C240-48 200 0 122 0H30v-248zM63-27c89 8 146-16 146-99s-60-101-146-95v194" id="i"/><use transform="matrix(0.05,0,0,0.05,0,0)" xlink:href="#i" id="d"/><path d="M30 0v-248h187v28H63v79h144v27H63v87h162V0H30" id="j"/><use transform="matrix(0.05,0,0,0.05,0,0)" xlink:href="#j" id="e"/></defs></g></svg>